# xmcd
#
# Track frame offsets:
#	150
#	18415
#	28550
#	44310
#	47917
#	69300
#	84972
#	118612
#	129100
#	144437
#	156837
#	178750
#	200937
#	212130
#	220242
#	233425
#
# Disc length: 3447 seconds
#
# Revision: 1
# Processed by: cddbd v1.5.1PL0 Copyright (c) Steve Scherf et al.
# Submitted via: CDex 1.50Beta5
#
DISCID=db0d7510
DTITLE=中村紘子・フィリップ・アントルモン・イエルク・デームス - 珠玉のピアノ名曲集
DYEAR=1900
DGENRE=Classical
TTITLE0=中村紘子/乙女の祈り
TTITLE1=フィリップ・アントルモン/トルコ行進曲
TTITLE2=フィリップ・アントルモン/主よ、人の望みの喜びよ
TTITLE3=イエルク・デームス/楽しき農夫
TTITLE4=フィリップ・アントルモン/愛の夢 第3番
TTITLE5=イエルク・デームス/エリーゼのために
TTITLE6=中村紘子/銀波
TTITLE7=フィリップ・アントルモン/亜麻色の髪の乙女
TTITLE8=イエルク・デームス/トルコ行進曲
TTITLE9=イエルク・デームス/トロイメライ
TTITLE10=フィリップ・アントルモン/月の光
TTITLE11=フィリップ・アントルモン/雨だれのプレリュード
TTITLE12=フィリップ・アントルモン/マズルカ作品7-1
TTITLE13=イエルク・デームス/楽興の時 第3番
TTITLE14=イエルク・デームス/歌の翼に
TTITLE15=フィリップ・アントルモン/軍隊ポロネーズ
EXTD=
EXTT0=
EXTT1=
EXTT2=
EXTT3=
EXTT4=
EXTT5=
EXTT6=
EXTT7=
EXTT8=
EXTT9=
EXTT10=
EXTT11=
EXTT12=
EXTT13=
EXTT14=
EXTT15=
PLAYORDER=
